<svg id="Layer_1" data-name="Layer 1" xmlns="http://www.w3.org/2000/svg" xmlns:xlink="http://www.w3.org/1999/xlink" viewBox="0 0 68.94 109.91">
  <defs>
    <clipPath id="clip-path" transform="translate(-121.32 -88.35)">
      <path d="M183.31,148.38l-8.49-2.65.94.27,8.48,2.65Z" fill="none"/>
    </clipPath>
    <clipPath id="clip-path-2" transform="translate(-121.32 -88.35)">
      <path d="M172.48,149,164,146.33c-5.32-3.19-7.38-8.45-3.91-16.91a70,70,0,0,1,5.22-9.74l8.48,2.65a71.64,71.64,0,0,0-5.21,9.74C165.11,140.53,167.17,145.79,172.48,149Z" fill="none"/>
    </clipPath>
    <clipPath id="clip-path-3" transform="translate(-121.32 -88.35)">
      <path d="M153.64,171.36l-8.48-2.66a62.46,62.46,0,0,1,3.05-10.33c3-7.41,7.75-11,13.28-11.66.36,0,.72-.07,1.09-.09s.87,0,1.31,0l8.49,2.65c-.45,0-.88,0-1.31,0s-.73,0-1.1.09c-5.53.68-10.24,4.26-13.28,11.66A64.25,64.25,0,0,0,153.64,171.36Z" fill="none"/>
    </clipPath>
    <clipPath id="clip-path-4" transform="translate(-121.32 -88.35)">
      <path d="M168.69,89.48l8.49,2.65c-.45-.13-.91-.27-1.37-.39l-8.49-2.65C167.79,89.21,168.25,89.34,168.69,89.48Z" fill="none"/>
    </clipPath>
    <clipPath id="clip-path-5" transform="translate(-121.32 -88.35)">
      <path d="M164.53,96.42,173,99.07c7.41,2.32,8.47,7.14,5.59,14.13a87.47,87.47,0,0,1-4.81,9.13l-8.48-2.65a91.45,91.45,0,0,0,4.81-9.13C173,103.55,171.93,98.74,164.53,96.42Z" fill="none"/>
    </clipPath>
    <clipPath id="clip-path-6" transform="translate(-121.32 -88.35)">
      <path d="M135.1,189.69,126.61,187a16.66,16.66,0,0,0,4.84.55l.82-.07c4.53-.55,7.71-3.65,9.93-9a85.49,85.49,0,0,0,3-9.78l8.48,2.66a85.94,85.94,0,0,1-3,9.77c-2.21,5.39-5.4,8.49-9.92,9l-.82.07A16.66,16.66,0,0,1,135.1,189.69Z" fill="none"/>
    </clipPath>
  </defs>
  <g style="isolation: isolate">
    <g style="isolation: isolate">
      <g clip-path="url(#clip-path)">
        <g style="isolation: isolate">
          <path d="M183.31,148.38l-8.49-2.65.94.27,8.48,2.65-.93-.27" transform="translate(-121.32 -88.35)" fill="#81738b"/>
        </g>
      </g>
    </g>
    <polygon points="51.05 60.9 42.57 58.25 42.67 57.98 51.16 60.63 51.05 60.9" fill="#786a81"/>
    <g style="isolation: isolate">
      <g clip-path="url(#clip-path-2)">
        <g style="isolation: isolate">
          <path d="M172.48,149,164,146.33c-5.32-3.19-7.38-8.45-3.91-16.91a70,70,0,0,1,5.22-9.74l8.48,2.65a71.64,71.64,0,0,0-5.21,9.74c-3.47,8.46-1.41,13.72,3.9,16.91" transform="translate(-121.32 -88.35)" fill="#7a6c83"/>
        </g>
      </g>
    </g>
    <g style="isolation: isolate">
      <g clip-path="url(#clip-path-3)">
        <g style="isolation: isolate">
          <path d="M153.64,171.36l-8.48-2.66a62.46,62.46,0,0,1,3.05-10.33c1.91-4.67,4.5-7.82,7.53-9.68l8.48,2.66c-3,1.85-5.61,5-7.53,9.67a64.25,64.25,0,0,0-3.05,10.34" transform="translate(-121.32 -88.35)" fill="#7a6c83"/>
          <path d="M164.22,151.35l-8.48-2.66a14.24,14.24,0,0,1,2.77-1.3L167,150a13.8,13.8,0,0,0-2.78,1.31" transform="translate(-121.32 -88.35)" fill="#7c6e85"/>
          <path d="M167,150l-8.49-2.65a14.83,14.83,0,0,1,2.82-.66l8.48,2.65A14.73,14.73,0,0,0,167,150" transform="translate(-121.32 -88.35)" fill="#7d6f87"/>
          <path d="M169.81,149.38l-8.48-2.65.16,0c.36,0,.72-.07,1.09-.09s.87,0,1.31,0l8.49,2.65c-.45,0-.88,0-1.31,0s-.73,0-1.1.09l-.16,0" transform="translate(-121.32 -88.35)" fill="#7f7189"/>
        </g>
      </g>
    </g>
    <g style="isolation: isolate">
      <g clip-path="url(#clip-path-4)">
        <g style="isolation: isolate">
          <path d="M175.81,91.74l-8.49-2.65c.47.12.93.25,1.37.39l8.49,2.65c-.45-.13-.91-.27-1.37-.39" transform="translate(-121.32 -88.35)" fill="#81738b"/>
        </g>
      </g>
    </g>
    <g style="isolation: isolate">
      <g clip-path="url(#clip-path-5)">
        <g style="isolation: isolate">
          <path d="M173.79,122.33l-8.48-2.65a91.45,91.45,0,0,0,4.81-9.13c2.87-7,1.81-11.81-5.59-14.13L173,99.07c7.41,2.32,8.47,7.14,5.59,14.13a87.47,87.47,0,0,1-4.81,9.13" transform="translate(-121.32 -88.35)" fill="#7a6c83"/>
        </g>
      </g>
    </g>
    <polygon points="51.77 2.65 43.29 0 46 0.73 54.48 3.38 51.77 2.65" fill="#80728a"/>
    <polygon points="48.79 9.93 40.31 7.28 43.29 0 51.77 2.65 48.79 9.93" fill="#786a81"/>
    <g style="isolation: isolate">
      <g clip-path="url(#clip-path-6)">
        <g style="isolation: isolate">
          <path d="M135.1,189.69,126.61,187a18.3,18.3,0,0,0,2.92.51L138,190.2a18.11,18.11,0,0,1-2.92-.51" transform="translate(-121.32 -88.35)" fill="#81738b"/>
          <path d="M138,190.2l-8.49-2.65a13.86,13.86,0,0,0,1.92,0l.82-.07h.1l8.48,2.65h-.09l-.82.07a13.8,13.8,0,0,1-1.92,0" transform="translate(-121.32 -88.35)" fill="#7f7189"/>
          <path d="M140.85,190.16l-8.48-2.65a11.56,11.56,0,0,0,2.07-.48l8.48,2.65a11.17,11.17,0,0,1-2.07.48" transform="translate(-121.32 -88.35)" fill="#7d6f87"/>
          <path d="M142.92,189.68,134.44,187a10.14,10.14,0,0,0,2-.93l8.49,2.65a10.22,10.22,0,0,1-2,.93" transform="translate(-121.32 -88.35)" fill="#7c6e85"/>
          <path d="M144.9,188.75l-8.49-2.65c2.43-1.49,4.32-4,5.79-7.62a85.49,85.49,0,0,0,3-9.78l8.48,2.66a85.94,85.94,0,0,1-3,9.77c-1.46,3.57-3.36,6.13-5.78,7.62" transform="translate(-121.32 -88.35)" fill="#7a6c83"/>
        </g>
      </g>
    </g>
    <polygon points="11.47 100.72 2.98 98.07 5.29 98.69 13.78 101.34 11.47 100.72" fill="#80728a"/>
    <path d="M177.26,135.89c-1.9,4.63-2.66,10.15,7,12.76l-2.77,6.73a17.54,17.54,0,0,0-5.4-.67c-.3,0-.58,0-.86.07-5.12.62-7.5,4.36-8.75,7.42a78.52,78.52,0,0,0-3.32,11,79.34,79.34,0,0,1-3.37,11.14c-3.59,8.74-9.34,12.8-16,13.73l-.67.08q-.6.06-1.2.09a29.77,29.77,0,0,1-9.25-1.12l-2.84-.76,3-7.28,2.31.62a16.66,16.66,0,0,0,4.84.55l.82-.07c4.52-.55,7.71-3.65,9.92-9a85.94,85.94,0,0,0,3-9.77A64.25,64.25,0,0,1,156.69,161c3-7.4,7.75-11,13.28-11.66.37,0,.73-.07,1.1-.09s.86,0,1.31,0l.1-.27c-5.31-3.19-7.37-8.45-3.9-16.91a71.64,71.64,0,0,1,5.21-9.74,87.47,87.47,0,0,0,4.81-9.13c2.94-7.14,1.77-12-6-14.26l-2.44-.66,3-7.28,2.71.74c11.54,3.12,17.69,10.5,12.7,22.67a89.24,89.24,0,0,1-5.59,10.68A90.55,90.55,0,0,0,177.26,135.89Z" transform="translate(-121.32 -88.35)" fill="#9c8ba7"/>
    <polygon points="8.48 108 0 105.34 2.98 98.07 11.47 100.72 8.48 108" fill="#786a81"/>
  </g>
</svg>
